PathFileType	4	(X/Y/Z)	marker.trc
DataRate	CameraRate	NumFrames	NumMarkers	Units	OrigDataRate	OrigDataStartFrame	OrigNumFrames
128	128	28	6	m	128	321	2567
Frame#	Time	US29-1	US29-2	US29-3	US30-1	US30-2	US30-3	
		X1	Y1	Z1	X2	Y2	Z2	X3	Y3	Z3	X4	Y4	Z4	X5	Y5	Z5	X6	Y6	Z6	

320	2.492187	-0.179020747542381	0.0657683834433556	0.139853253960609	-0.153036385774612	0.0838034152984619	0.116381101310253	-0.181884303689003	0.0885571986436844	0.141710728406906	-0.229616791009903	0.0836081206798553	0.0800698846578598	-0.226516842842102	0.0734933912754059	0.103512264788151	-0.233622297644615	0.0952253937721252	0.102290257811546	
321	2.5	-0.179029881954193	0.0658100172877312	0.139816135168076	-0.153065785765648	0.0837933048605919	0.116309098899364	-0.181857794523239	0.0885536968708038	0.141696572303772	-0.22959965467453	0.0835972055792809	0.0800499022006989	-0.226549044251442	0.0734884217381477	0.103504233062267	-0.233609333634377	0.0952066481113434	0.102307759225368	
322	2.507812	-0.179047182202339	0.0657889768481255	0.139764502644539	-0.153005018830299	0.0838037952780724	0.116379611194134	-0.181862011551857	0.0885550156235695	0.141701385378838	-0.229603976011276	0.0835992321372032	0.0800532773137093	-0.226564735174179	0.0734363868832588	0.103497728705406	-0.233587637543678	0.0951934233307838	0.102307461202145	
323	2.515625	-0.179038673639297	0.0658043548464775	0.139787271618843	-0.153034165501595	0.0837832391262054	0.116311222314835	-0.181867092847824	0.0885425508022308	0.141683429479599	-0.229594931006432	0.0835886523127556	0.0800579860806465	-0.226566687226295	0.0734471529722214	0.103517070412636	-0.233609721064568	0.095183752477169	0.102264657616615	
324	2.523437	-0.17903770506382	0.0657558590173721	0.139792397618294	-0.153018921613693	0.0837611854076385	0.116344347596169	-0.181857898831367	0.0885183289647102	0.14166758954525	-0.229578047990799	0.0835553184151649	0.0800362005829811	-0.226591974496841	0.0734362900257111	0.103488057851791	-0.233624860644341	0.095164529979229	0.102282375097275	
325	2.53125	-0.179023653268814	0.0657942742109299	0.139746502041817	-0.153034448623657	0.0837838873267174	0.116361856460571	-0.181835442781448	0.0885412245988846	0.141685023903847	-0.229641690850258	0.0835580602288246	0.0800324305891991	-0.226636156439781	0.0734371542930603	0.103505276143551	-0.23365293443203	0.0951861962676048	0.102306365966797	
326	2.539062	-0.178981140255928	0.0657851621508598	0.139842361211777	-0.153024479746819	0.0837675631046295	0.116362050175667	-0.181834802031517	0.0885050445795059	0.141675412654877	-0.229578837752342	0.0835180133581161	0.0800270363688469	-0.226605623960495	0.073406383395195	0.103477649390697	-0.233636200428009	0.0951681137084961	0.102245733141899	
327	2.546875	-0.179015591740608	0.0657744780182838	0.139762878417969	-0.153012126684189	0.0837456658482552	0.116343729197979	-0.181866988539696	0.0885065943002701	0.141641318798065	-0.229601502418518	0.0835204869508743	0.0799881890416145	-0.226601868867874	0.0733606219291687	0.103482261300087	-0.233606100082397	0.0951804667711258	0.10226958245039	
328	2.554687	-0.179004564881325	0.065746046602726	0.139768123626709	-0.152993693947792	0.083733968436718	0.116297423839569	-0.181857421994209	0.0884926989674568	0.14164337515831	-0.229584649205208	0.0835099145770073	0.0800230205059052	-0.226637423038483	0.0734133273363113	0.103449650108814	-0.233615711331367	0.0951391533017159	0.102228105068207	
329	2.5625	-0.178982466459274	0.0657291114330292	0.139769986271858	-0.153006911277771	0.0837058499455452	0.116319634020329	-0.181818902492523	0.0884680226445198	0.141630828380585	-0.229586213827133	0.0835215225815773	0.080025851726532	-0.22663389146328	0.0733727961778641	0.103454269468784	-0.23360450565815	0.0951302126049995	0.102216251194477	
330	2.570312	-0.178990244865417	0.0657346099615097	0.139742374420166	-0.152976155281067	0.0837185308337212	0.116358712315559	-0.181852668523788	0.0884677991271019	0.141638919711113	-0.229578539729118	0.0834947004914284	0.0800018832087517	-0.226524472236633	0.0733944252133369	0.103448644280434	-0.233608022332191	0.0951613411307335	0.102250047028065	
331	2.578125	-0.178965628147125	0.0657294616103172	0.139769673347473	-0.153000578284264	0.0837242677807808	0.11627684533596	-0.18184557557106	0.0884832963347435	0.141647160053253	-0.229563325643539	0.0835033506155014	0.0799970477819443	-0.226582154631615	0.0733731240034103	0.103452481329441	-0.233612090349197	0.0951339527964592	0.102229334414005	
332	2.585937	-0.178947195410728	0.0657446533441544	0.139787003397942	-0.152995228767395	0.0837221369147301	0.116325721144676	-0.181817024946213	0.0884978026151657	0.14164687693119	-0.22958567738533	0.0835225135087967	0.0799861028790474	-0.226534783840179	0.0734051316976547	0.103451192378998	-0.233614310622215	0.0951243191957474	0.102251000702381	
333	2.59375	-0.178960934281349	0.0657375603914261	0.139775529503822	-0.152972519397736	0.0837372243404388	0.116298675537109	-0.181823506951332	0.088481217622757	0.141633599996567	-0.229545086622238	0.0835436061024666	0.0799847543239594	-0.226533427834511	0.0733962953090668	0.103451155126095	-0.233583152294159	0.0951725170016289	0.102218702435493	
334	2.601562	-0.178989216685295	0.0657610446214676	0.139763101935387	-0.152982324361801	0.0837265476584435	0.116325840353966	-0.181805342435837	0.0884544402360916	0.141655474901199	-0.229556262493134	0.0835609138011932	0.0799982696771622	-0.226488173007965	0.0734281986951828	0.103450074791908	-0.233530551195145	0.0951904058456421	0.102274589240551	
335	2.609375	-0.17899326980114	0.0657332614064217	0.139768078923225	-0.152948707342148	0.0837112963199615	0.116329617798328	-0.181805238127708	0.0884962677955627	0.141672819852829	-0.229523792862892	0.0835346877574921	0.0799828469753265	-0.226506367325783	0.0734055265784264	0.103439554572105	-0.233526021242142	0.0951922237873077	0.102266274392605	
336	2.617187	-0.178952053189278	0.0657322853803635	0.139773324131966	-0.152967274188995	0.0837172344326973	0.116300694644451	-0.181785672903061	0.0884725600481033	0.141639783978462	-0.229523301124573	0.0835553333163261	0.0799922868609428	-0.226477488875389	0.0733984559774399	0.103469461202621	-0.233555555343628	0.0951406061649323	0.10223376005888	
337	2.625	-0.1789381057024	0.0657504200935364	0.139772772789001	-0.15296995639801	0.0837099924683571	0.116303212940693	-0.181790471076965	0.0884657800197601	0.141647577285767	-0.229543030261993	0.0835108682513237	0.0799854919314384	-0.226485908031464	0.0734308734536171	0.103448107838631	-0.233544871211052	0.0951696783304214	0.102228045463562	
338	2.632812	-0.178976118564606	0.0657243281602859	0.139737397432327	-0.152948960661888	0.08371452242136	0.116327323019505	-0.181788563728333	0.0884720832109451	0.141644656658173	-0.229527801275253	0.0835202410817146	0.0799826383590698	-0.226554781198502	0.0734031721949577	0.103478148579597	-0.233512237668037	0.0951442867517471	0.102218352258205	
339	2.640625	-0.178952023386955	0.0657484754920006	0.139782667160034	-0.152954891324043	0.0837019979953766	0.116337075829506	-0.181818261742592	0.0884745195508003	0.141632109880447	-0.22954910993576	0.0835179910063744	0.0799976736307144	-0.226515382528305	0.0733515024185181	0.103469558060169	-0.233564347028732	0.0951359272003174	0.102233715355396	
340	2.648437	-0.178941830992699	0.0657370984554291	0.1397784948349	-0.152994558215141	0.0837282314896584	0.11629144102335	-0.18176531791687	0.0884553641080856	0.141634061932564	-0.229498013854027	0.0835041031241417	0.0799902528524399	-0.226527646183968	0.0733912512660027	0.103430293500423	-0.233543008565903	0.0951716005802155	0.102238856256008	
341	2.65625	-0.178978368639946	0.0657399073243141	0.139751523733139	-0.152985066175461	0.0836940929293633	0.116326592862606	-0.181798607110977	0.0884661003947258	0.141643822193146	-0.229530915617943	0.0835123434662819	0.0799898579716682	-0.226529836654663	0.0733974725008011	0.103431306779385	-0.233577862381935	0.0951580256223679	0.102214485406876	
342	2.664062	-0.178971946239471	0.0657346323132515	0.139797046780586	-0.153004139661789	0.0836921185255051	0.116311356425285	-0.181801781058311	0.0884881913661957	0.141633376479149	-0.22954398393631	0.083533026278019	0.0800032839179039	-0.226522207260132	0.0733636394143105	0.103432044386864	-0.233560368418694	0.0951403453946114	0.102245308458805	
343	2.671875	-0.179025173187256	0.0657416358590126	0.139722689986229	-0.152978479862213	0.083683580160141	0.116265617311001	-0.181810423731804	0.0884867161512375	0.141628637909889	-0.229555010795593	0.0835171267390251	0.0800062417984009	-0.226479902863503	0.0734068378806114	0.103469423949718	-0.233583196997643	0.0951576232910156	0.102247752249241	
344	2.679687	-0.178982838988304	0.0657417103648186	0.139739319682121	-0.152946978807449	0.0836726650595665	0.116311237215996	-0.181788668036461	0.0884727314114571	0.141642063856125	-0.229556798934937	0.0835147947072983	0.0800013169646263	-0.226458385586739	0.0734219402074814	0.10347755998373	-0.23356918990612	0.0951386541128159	0.102218732237816	
345	2.6875	-0.178991481661797	0.0657254606485367	0.139754980802536	-0.15299066901207	0.0836822018027306	0.116289854049683	-0.181803092360497	0.0884685143828392	0.141641020774841	-0.229548901319504	0.0835067331790924	0.0799873396754265	-0.226533442735672	0.0734063610434532	0.103449188172817	-0.233556985855103	0.0951565876603127	0.102207347750664	
346	2.695312	-0.178982570767403	0.0656957626342773	0.139760613441467	-0.152985900640488	0.0836788341403008	0.116275683045387	-0.181810736656189	0.0884761139750481	0.141630455851555	-0.22955447435379	0.0835341587662697	0.0799893662333488	-0.226478680968285	0.0733944699168205	0.103451624512672	-0.233563765883446	0.0951538905501366	0.102230526506901	
347	2.703125	-0.178957104682922	0.0657022520899773	0.139740750193596	-0.153024107217789	0.0836576372385025	0.116257205605507	-0.181802853941917	0.0884621813893318	0.141632348299026	-0.229572176933289	0.0835175439715385	0.079995222389698	-0.226530566811562	0.073409728705883	0.103448539972305	-0.233570948243141	0.0951333567500114	0.102269046008587	
